<?xml version="1.0" encoding="UTF-8"?>
<svg version="1.1" xmlns="http://www.w3.org/2000/svg" width="150" height="150">
<path d="M0 0 C0.763125 0.5775 1.52625 1.155 2.3125 1.75 C1.97236985 7.19208234 -1.39046528 10.68668198 -4.6875 14.75 C-7.80387201 14.304804 -10.60255691 13.78139201 -13.5625 12.6875 C-19.77725245 10.82307426 -25.7226098 11.30013438 -31.6875 13.75 C-36.66064364 17.07463862 -40.55470709 20.67960039 -42.28515625 26.515625 C-43.53666546 33.46575384 -43.57876205 39.82894284 -39.94140625 46.0390625 C-37.34330448 49.58413594 -34.65600308 52.16800779 -30.44140625 53.4140625 C-27.67579944 54.24056568 -25.92708024 54.89640802 -23.6875 56.75 C-21.62212505 61.63912977 -20.43456092 66.5015805 -19.6875 71.75 C-20.6875 72.75 -20.6875 72.75 -23.05859375 72.8046875 C-35.56929073 72.07157659 -44.32338333 67.08031635 -52.6875 57.75 C-58.79549698 48.87826059 -61.90331958 39.55559654 -60.6875 28.75 C-58.94684277 20.53132865 -56.36487693 13.96349726 -50.6875 7.75 C-50.18605469 7.14671875 -49.68460938 6.5434375 -49.16796875 5.921875 C-36.48363002 -8.27470849 -15.66614954 -10.27288494 0 0 Z " fill="#05DFAD" transform="translate(93.6875,41.25)"/>
<path d="M0 0 C4.95 0 9.9 0 15 0 C18.04289276 8.29794989 19.80720772 16.81161542 21.625 25.4375 C22.09181033 27.63944915 22.56011169 29.841052 23.03158569 32.04200745 C23.45493498 34.02004247 23.87335271 35.99913107 24.29150391 37.97827148 C24.85373917 40.90016912 24.85373917 40.90016912 26 43 C28.64 43 31.28 43 34 43 C35.35074193 40.06271544 35.35074193 40.06271544 33.9375 37.5625 C32.12784005 34.80143139 32.12784005 34.80143139 29 33.375 C24.54514631 29.84824083 23.91529963 25.45968203 23 20 C23 18.68 23 17.36 23 16 C28.30939444 14.23020185 33.18128846 17.62733493 38 20 C44.41949422 23.73421559 49.36990445 28.73353745 51.609375 35.96875 C52.6270338 41.26057574 52.72189405 45.58199384 50.25 50.4375 C47.16768076 53.94791913 45.3973381 54.90385288 40.70019531 55.22705078 C39.42241211 55.21657715 38.14462891 55.20610352 36.828125 55.1953125 C36.1457074 55.1924826 35.46328979 55.18965271 34.76019287 55.18673706 C32.58994693 55.17558098 30.42012029 55.15048557 28.25 55.125 C26.77474556 55.11496426 25.29948463 55.10583944 23.82421875 55.09765625 C20.21601058 55.07565687 16.60804625 55.04115883 13 55 C12.48691379 53.14324723 11.97391191 51.28647116 11.4609375 49.4296875 C11.1302124 48.2327124 10.7994873 47.0357373 10.45874023 45.80249023 C9.73248746 43.17228753 9.00818965 40.54155692 8.28540039 37.91040039 C6.57999306 31.70534251 4.86518043 25.50415038 3.09765625 19.31640625 C2.8155127 18.31689941 2.53336914 17.31739258 2.24267578 16.28759766 C1.71629961 14.42437283 1.18242462 12.56324593 0.64013672 10.70458984 C0.29039795 9.45669678 0.29039795 9.45669678 -0.06640625 8.18359375 C-0.27209229 7.46743896 -0.47777832 6.75128418 -0.68969727 6.01342773 C-1 4 -1 4 0 0 Z " fill="#06D4E8" transform="translate(64,59)"/>
<path d="M0 0 C1.39456452 0.00667256 2.78911118 0.01863093 4.18359375 0.03515625 C4.89451172 0.03966797 5.60542969 0.04417969 6.33789062 0.04882812 C8.09899388 0.06064761 9.86005411 0.07858362 11.62109375 0.09765625 C13.8224452 6.27591189 15.49235311 12.42522137 16.80859375 18.84765625 C16.98583984 19.67136719 17.16308594 20.49507812 17.34570312 21.34375 C18.17439048 25.31760983 18.8618383 29.01330048 18.62109375 33.09765625 C17.96109375 31.77765625 17.30109375 30.45765625 16.62109375 29.09765625 C16.74677734 30.01998047 16.74677734 30.01998047 16.875 30.9609375 C16.97683594 31.76917969 17.07867187 32.57742187 17.18359375 33.41015625 C17.28800781 34.21066406 17.39242187 35.01117188 17.5 35.8359375 C17.62109375 38.09765625 17.62109375 38.09765625 16.62109375 41.09765625 C15.96109375 41.09765625 15.30109375 41.09765625 14.62109375 41.09765625 C14.29109375 39.77765625 13.96109375 38.45765625 13.62109375 37.09765625 C13.62109375 37.75765625 13.62109375 38.41765625 13.62109375 39.09765625 C12.63109375 39.59265625 12.63109375 39.59265625 11.62109375 40.09765625 C10.96554256 42.6249886 10.96554256 42.6249886 10.62109375 45.09765625 C11.28109375 45.42765625 11.94109375 45.75765625 12.62109375 46.09765625 C11.4693602 48.56565672 10.5732581 50.1454919 8.62109375 52.09765625 C6.9264456 45.7998909 5.2362366 39.50094623 3.54907227 33.20117188 C2.97489318 31.05929763 2.39970772 28.9176929 1.82348633 26.77636719 C0.99424178 23.69406736 0.1686506 20.61080857 -0.65625 17.52734375 C-0.91357407 16.57399139 -1.17089813 15.62063904 -1.4360199 14.63839722 C-3.90301951 5.38889429 -3.90301951 5.38889429 -4.37890625 1.09765625 C-3.37890625 0.09765625 -3.37890625 0.09765625 0 0 Z " fill="#04E2D2" transform="translate(67.37890625,58.90234375)"/>
<path d="M0 0 C0.763125 0.5775 1.52625 1.155 2.3125 1.75 C1.97236985 7.19208234 -1.39046528 10.68668198 -4.6875 14.75 C-7.7328885 14.3149445 -10.46833705 13.83508679 -13.34375 12.71875 C-17.5204789 11.50866966 -21.24518997 11.52987283 -25.5625 11.625 C-26.34625 11.63402344 -27.13 11.64304687 -27.9375 11.65234375 C-29.85430055 11.67571937 -31.77094191 11.71158347 -33.6875 11.75 C-34.0175 10.76 -34.3475 9.77 -34.6875 8.75 C-36.31082967 7.36423077 -37.97474465 6.02358732 -39.6875 4.75 C-39.0275 3.76 -38.3675 2.77 -37.6875 1.75 C-39.6675 2.41 -41.6475 3.07 -43.6875 3.75 C-41.63294273 -1.18093746 -38.71289459 -2.493649 -34.0390625 -4.453125 C-22.35774616 -8.41157771 -10.27953712 -6.74068008 0 0 Z " fill="#04E0CB" transform="translate(93.6875,41.25)"/>
<path d="M0 0 C0.66 0.33 1.32 0.66 2 1 C1.59007813 1.43570313 1.18015625 1.87140625 0.7578125 2.3203125 C-4.92604161 8.60246704 -6.49667782 13.7778201 -6.3125 22.25 C-5.6591106 27.9998267 -3.30197688 31.66774459 0.6875 35.75 C2.55078325 37.21976541 3.95644988 37.98712431 6.24609375 38.6640625 C9.01170056 39.49056568 10.76041976 40.14640802 13 42 C15.06537495 46.88912977 16.25293908 51.7515805 17 57 C16 58 16 58 13.62890625 58.0546875 C1.79299027 57.3611179 -5.29406961 53.00710013 -14.1640625 45.37890625 C-16.46111562 42.40251188 -16.36967836 40.67037799 -16 37 C-16.66 37 -17.32 37 -18 37 C-17.67 36.01 -17.34 35.02 -17 34 C-16.34 34.33 -15.68 34.66 -15 35 C-14.67 35.99 -14.34 36.98 -14 38 C-13.34 38.66 -12.68 39.32 -12 40 C-12.33 40.99 -12.66 41.98 -13 43 C-9.28111761 42.49287967 -6.26545761 41.88391785 -3 40 C-3.51340384 36.20081162 -4.2079868 34.56865214 -7 32 C-9.48431716 28.30952886 -9.33232341 24.48125007 -9.3125 20.1875 C-9.32861328 19.50107422 -9.34472656 18.81464844 -9.36132812 18.10742188 C-9.36670671 12.42225961 -8.33229421 7.58198021 -4.39453125 3.22265625 C-2.9296875 2.1484375 -1.46484375 1.07421875 0 0 Z " fill="#06E2BD" transform="translate(57,56)"/>
<path d="M0 0 C9.04942699 3.24557508 18.06859429 7.23621438 22.61328125 16.20703125 C24.7665758 21.2050452 25.51679013 26.02559637 24.71484375 31.43359375 C23.21484375 34.49609375 23.21484375 34.49609375 21.71484375 36.43359375 C20.58984375 32.68359375 20.58984375 32.68359375 21.71484375 30.43359375 C21.78518144 28.5597977 21.79914595 26.68358273 21.77734375 24.80859375 C21.76832031 23.80570313 21.75929688 22.8028125 21.75 21.76953125 C21.73839844 20.99867187 21.72679688 20.2278125 21.71484375 19.43359375 C20.72484375 19.43359375 19.73484375 19.43359375 18.71484375 19.43359375 C18.38484375 18.44359375 18.05484375 17.45359375 17.71484375 16.43359375 C17.05484375 16.76359375 16.39484375 17.09359375 15.71484375 17.43359375 C15.38484375 18.42359375 15.05484375 19.41359375 14.71484375 20.43359375 C14.05484375 20.76359375 13.39484375 21.09359375 12.71484375 21.43359375 C12.05929256 23.9609261 12.05929256 23.9609261 11.71484375 26.43359375 C11.38484375 26.43359375 11.05484375 26.43359375 10.71484375 26.43359375 C10.71484375 24.78359375 10.71484375 23.13359375 10.71484375 21.43359375 C10.05484375 21.43359375 9.39484375 21.43359375 8.71484375 21.43359375 C8.92109375 22.38234375 9.12734375 23.33109375 9.33984375 24.30859375 C9.46359375 25.33984375 9.58734375 26.37109375 9.71484375 27.43359375 C7.21421228 29.93422522 6.23672677 29.75779517 2.77734375 29.80859375 C1.46443359 29.85113281 1.46443359 29.85113281 0.125 29.89453125 C-2.28515625 29.43359375 -2.28515625 29.43359375 -4.08984375 27.67578125 C-5.97614993 24.13741607 -5.48317948 21.39405827 -5.28515625 17.43359375 C-3.54853291 20.65875138 -2.39456345 23.94688541 -1.28515625 27.43359375 C1.35484375 27.43359375 3.99484375 27.43359375 6.71484375 27.43359375 C8.06558568 24.49630919 8.06558568 24.49630919 6.65234375 21.99609375 C4.8426838 19.23502514 4.8426838 19.23502514 1.71484375 17.80859375 C-2.74000994 14.28183458 -3.36985662 9.89327578 -4.28515625 4.43359375 C-4.28515625 3.11359375 -4.28515625 1.79359375 -4.28515625 0.43359375 C-2.28515625 -0.56640625 -2.28515625 -0.56640625 0 0 Z " fill="#05C0E5" transform="translate(91.28515625,74.56640625)"/>
<path d="M0 0 C2.18475759 2.49686582 3.37169117 4.83962708 4.4375 7.9375 C5.44936097 10.85945148 6.19608602 12.23421386 8.25 14.6875 C10 17 10 17 9.75 19.8125 C9.5025 20.534375 9.255 21.25625 9 22 C7.71073008 22.36279456 6.41846728 22.71496698 5.125 23.0625 C4.04605469 23.35833984 4.04605469 23.35833984 2.9453125 23.66015625 C1 24 1 24 -1 23 C-1.5625 21.1875 -1.5625 21.1875 -2 19 C-2.185625 18.2575 -2.37125 17.515 -2.5625 16.75 C-2.7790625 15.88375 -2.7790625 15.88375 -3 15 C-3.66 15 -4.32 15 -5 15 C-5.33 15.66 -5.66 16.32 -6 17 C-5.34 17 -4.68 17 -4 17 C-4.33 18.32 -4.66 19.64 -5 21 C-9.05399061 14.61189358 -9.05399061 14.61189358 -8.8125 11.875 C-8.544375 11.25625 -8.27625 10.6375 -8 10 C-7.855625 9.13375 -7.71125 8.2675 -7.5625 7.375 C-7 5 -7 5 -5 3 C-4.01 3 -3.02 3 -2 3 C-1.34 2.01 -0.68 1.02 0 0 Z " fill="#03E9AD" transform="translate(45,76)"/>
<path d="M0 0 C1.39456452 0.00667256 2.78911118 0.01863093 4.18359375 0.03515625 C4.89451172 0.03966797 5.60542969 0.04417969 6.33789062 0.04882812 C8.09899388 0.06064761 9.86005411 0.07858362 11.62109375 0.09765625 C13.8224452 6.27591189 15.49235311 12.42522137 16.80859375 18.84765625 C16.98583984 19.67136719 17.16308594 20.49507812 17.34570312 21.34375 C18.17439048 25.31760983 18.8618383 29.01330048 18.62109375 33.09765625 C18.14671875 32.43765625 17.67234375 31.77765625 17.18359375 31.09765625 C16.66796875 30.43765625 16.15234375 29.77765625 15.62109375 29.09765625 C15.29109375 29.09765625 14.96109375 29.09765625 14.62109375 29.09765625 C14.51152344 27.97488281 14.40195313 26.85210937 14.2890625 25.6953125 C13.46953729 17.79879054 12.59286957 10.5270958 9.62109375 3.09765625 C5.99109375 2.76765625 2.36109375 2.43765625 -1.37890625 2.09765625 C-0.88390625 3.83015625 -0.38890625 5.56265625 0.12109375 7.34765625 C1.12734359 10.86953071 1.62109375 13.3899591 1.62109375 17.09765625 C2.28109375 17.09765625 2.94109375 17.09765625 3.62109375 17.09765625 C3.76804687 17.91943359 3.76804687 17.91943359 3.91796875 18.7578125 C4.80591869 23.46547815 5.87073313 28.05478679 7.19335938 32.66162109 C9.08824374 39.29873815 10.2052178 45.20174727 9.62109375 52.09765625 C8.20495794 49.42642666 7.18216592 46.89329326 6.40014648 43.97509766 C6.18329697 43.1739151 5.96644745 42.37273254 5.74302673 41.54727173 C5.51587479 40.68991425 5.28872284 39.83255676 5.0546875 38.94921875 C4.69625511 37.61399673 4.69625511 37.61399673 4.33058167 36.25180054 C3.82679356 34.37122089 3.32512818 32.49007148 2.82543945 30.60839844 C2.06287197 27.73875574 1.29271781 24.87123057 0.52148438 22.00390625 C0.03209837 20.17329832 -0.45684841 18.3425729 -0.9453125 16.51171875 C-1.17448868 15.65840973 -1.40366486 14.80510071 -1.63978577 13.92593384 C-2.76392473 9.67820953 -3.87425297 5.47246921 -4.37890625 1.09765625 C-3.37890625 0.09765625 -3.37890625 0.09765625 0 0 Z " fill="#14ABC8" transform="translate(67.37890625,58.90234375)"/>
<path d="M0 0 C0.763125 0.5775 1.52625 1.155 2.3125 1.75 C1.97236985 7.19208234 -1.39046528 10.68668198 -4.6875 14.75 C-7.76620742 14.31018465 -10.54601342 13.80246132 -13.46875 12.71875 C-17.00536562 11.65433171 -19.87991648 11.54984523 -23.5625 11.625 C-24.71492188 11.64304687 -25.86734375 11.66109375 -27.0546875 11.6796875 C-27.92351562 11.70289062 -28.79234375 11.72609375 -29.6875 11.75 C-29.6875 10.76 -29.6875 9.77 -29.6875 8.75 C-28.0375 8.42 -26.3875 8.09 -24.6875 7.75 C-24.6875 8.08 -24.6875 8.41 -24.6875 8.75 C-21.54261498 9.11295678 -18.39650484 9.46388796 -15.25 9.8125 C-14.35216797 9.91626953 -13.45433594 10.02003906 -12.52929688 10.12695312 C-11.24829102 10.26713867 -11.24829102 10.26713867 -9.94140625 10.41015625 C-9.15064697 10.49918213 -8.3598877 10.58820801 -7.54516602 10.67993164 C-6.62562134 10.71461548 -6.62562134 10.71461548 -5.6875 10.75 C-4.19006881 9.25256881 -4.35547307 7.76175761 -4.125 5.6875 C-3.980625 4.388125 -3.83625 3.08875 -3.6875 1.75 C-10.38009325 -1.85370406 -16.09501016 -2.52120086 -23.5625 -2.375 C-24.44164063 -2.36597656 -25.32078125 -2.35695312 -26.2265625 -2.34765625 C-28.3803271 -2.32424577 -30.53395014 -2.2883801 -32.6875 -2.25 C-32.6875 -1.59 -32.6875 -0.93 -32.6875 -0.25 C-34.3375 -0.25 -35.9875 -0.25 -37.6875 -0.25 C-36.3675 -0.91 -35.0475 -1.57 -33.6875 -2.25 C-33.6875 -2.91 -33.6875 -3.57 -33.6875 -4.25 C-22.09650149 -8.46490855 -10.2779344 -6.73962911 0 0 Z " fill="#0FA9CC" transform="translate(93.6875,41.25)"/>
<path d="M0 0 C9.04942699 3.24557508 18.06859429 7.23621438 22.61328125 16.20703125 C24.7665758 21.2050452 25.51679013 26.02559637 24.71484375 31.43359375 C23.21484375 34.49609375 23.21484375 34.49609375 21.71484375 36.43359375 C20.58984375 32.68359375 20.58984375 32.68359375 21.71484375 30.43359375 C21.78518144 28.5597977 21.79914595 26.68358273 21.77734375 24.80859375 C21.76832031 23.80570313 21.75929688 22.8028125 21.75 21.76953125 C21.73839844 20.99867187 21.72679688 20.2278125 21.71484375 19.43359375 C20.72484375 19.43359375 19.73484375 19.43359375 18.71484375 19.43359375 C18.44671875 18.50546875 18.17859375 17.57734375 17.90234375 16.62109375 C16.41817554 12.63727382 15.14971138 11.10800479 11.3046875 9.30078125 C10.42941406 8.97335938 9.55414063 8.6459375 8.65234375 8.30859375 C3.75120739 6.45177557 3.75120739 6.45177557 1.71484375 5.43359375 C1.71484375 8.40359375 1.71484375 11.37359375 1.71484375 14.43359375 C3.03484375 15.09359375 4.35484375 15.75359375 5.71484375 16.43359375 C6.46484375 18.55859375 6.46484375 18.55859375 6.71484375 20.43359375 C2.57452682 18.6535525 -0.56808814 17.01254503 -2.484375 12.79296875 C-3.64973558 8.54082381 -4.28515625 4.85715239 -4.28515625 0.43359375 C-2.28515625 -0.56640625 -2.28515625 -0.56640625 0 0 Z " fill="#139DD4" transform="translate(91.28515625,74.56640625)"/>
<path d="M0 0 C0.66 0.33 1.32 0.66 2 1 C1.38511719 1.65355469 1.38511719 1.65355469 0.7578125 2.3203125 C-4.92604161 8.60246704 -6.49667782 13.7778201 -6.3125 22.25 C-5.6591106 27.9998267 -3.30197688 31.66774459 0.6875 35.75 C3.22432015 37.70790479 5.83579646 38.77989307 8.8125 39.9375 C11.140625 40.88671875 11.140625 40.88671875 13 42 C14.0625 45.25 14.0625 45.25 14 48 C12 45 12 45 12 43 C10.948125 42.814375 10.948125 42.814375 9.875 42.625 C3.67783106 41.27778936 0.31285417 39.77910867 -4 35 C-4.8353125 34.2265625 -4.8353125 34.2265625 -5.6875 33.4375 C-9.3082714 29.47189323 -9.33633341 25.3498172 -9.3125 20.1875 C-9.32861328 19.50107422 -9.34472656 18.81464844 -9.36132812 18.10742188 C-9.36670671 12.42225961 -8.33229421 7.58198021 -4.39453125 3.22265625 C-2.9296875 2.1484375 -1.46484375 1.07421875 0 0 Z " fill="#0FA2B4" transform="translate(57,56)"/>
<path d="M0 0 C0.33 0.66 0.66 1.32 1 2 C1.66 2 2.32 2 3 2 C3.09796875 2.54785156 3.1959375 3.09570312 3.296875 3.66015625 C4.18482494 8.3678219 5.24963938 12.95713054 6.57226562 17.56396484 C8.46714999 24.2010819 9.58412405 30.10409102 9 37 C6.02984861 31.60755766 4.90456144 25.54427842 3.375 19.625 C2.88773437 17.79582031 2.88773437 17.79582031 2.390625 15.9296875 C1.93042969 14.15851563 1.93042969 14.15851563 1.4609375 12.3515625 C1.18040527 11.27729004 0.89987305 10.20301758 0.61083984 9.09619141 C-0.00380199 5.9807287 -0.11107376 3.16649304 0 0 Z " fill="#14B5C9" transform="translate(68,74)"/>
<path d="M0 0 C0 0.66 0 1.32 0 2 C-1.11375 1.83628906 -2.2275 1.67257813 -3.375 1.50390625 C-8.25979515 0.89330686 -13.08395145 0.88841503 -18 0.9375 C-18.87011719 0.94201172 -19.74023438 0.94652344 -20.63671875 0.95117188 C-22.75784293 0.9628264 -24.8789311 0.98075643 -27 1 C-27 1.66 -27 2.32 -27 3 C-28.65 3 -30.3 3 -32 3 C-30.68 2.34 -29.36 1.68 -28 1 C-28 0.34 -28 -0.32 -28 -1 C-18.58411131 -4.42395952 -9.17712388 -3.89332528 0 0 Z " fill="#10A7C2" transform="translate(88,38)"/>
<path d="M0 0 C1.4585872 0.64525977 2.91686137 1.2912272 4.375 1.9375 C5.59316406 2.47697266 5.59316406 2.47697266 6.8359375 3.02734375 C8.23683785 3.6569903 9.62625284 4.31312642 11 5 C11 5.66 11 6.32 11 7 C9.68 7 8.36 7 7 7 C7.33 7.99 7.66 8.98 8 10 C7.34 10.66 6.68 11.32 6 12 C3.66106372 11.77365133 2.22205094 11.14274703 0.25 9.875 C-1.68360278 6.97459583 -1.25078636 4.38561592 -1 1 C-0.67 0.67 -0.34 0.34 0 0 Z " fill="#02DCEB" transform="translate(93,79)"/>
<path d="M0 0 C2.475 0.495 2.475 0.495 5 1 C5 1.66 5 2.32 5 3 C6.175625 3.185625 6.175625 3.185625 7.375 3.375 C10 4 10 4 12 6 C10.33388095 6.042721 8.66617115 6.04063832 7 6 C6.67 5.67 6.34 5.34 6 5 C6 7.97 6 10.94 6 14 C7.32 14.66 8.64 15.32 10 16 C10.75 18.125 10.75 18.125 11 20 C6.85968307 18.21995875 3.71706811 16.57895128 1.80078125 12.359375 C0.63542067 8.10723006 0 4.42355864 0 0 Z " fill="#10B9DC" transform="translate(87,75)"/>
<path d="M0 0 C0.66 0.33 1.32 0.66 2 1 C2 1.66 2 2.32 2 3 C2.33 3.66 2.66 4.32 3 5 C1.68 4.67 0.36 4.34 -1 4 C-1.226875 4.928125 -1.45375 5.85625 -1.6875 6.8125 C-3.26947217 10.65443242 -4.53187402 10.9356393 -8 13 C-9.57740363 15.25198461 -10.74665027 17.53972089 -12 20 C-13 18 -13 18 -12.5390625 16.15234375 C-9.72365969 9.33040617 -5.43153996 4.9092765 0 0 Z " fill="#13C8B7" transform="translate(50,42)"/>
<path d="M0 0 C2.02178662 3.03267993 2.55956405 4.85555324 3.2890625 8.3671875 C3.50820312 9.41777344 3.72734375 10.46835938 3.953125 11.55078125 C4.17484375 12.64777344 4.3965625 13.74476562 4.625 14.875 C4.85445313 15.96425781 5.08390625 17.05351563 5.3203125 18.17578125 C6.2845354 22.86488906 7.14308172 27.1952941 7 32 C6.525625 31.34 6.05125 30.68 5.5625 30 C5.046875 29.34 4.53125 28.68 4 28 C3.67 28 3.34 28 3 28 C2.86722656 26.79601562 2.73445313 25.59203125 2.59765625 24.3515625 C2.4194698 22.77601915 2.2410735 21.20049953 2.0625 19.625 C1.97548828 18.8309375 1.88847656 18.036875 1.79882812 17.21875 C1.3961065 12.97744999 1.3961065 12.97744999 0 9 C-0.06950541 7.45976004 -0.08452357 5.91665012 -0.0625 4.375 C-0.05347656 3.55773438 -0.04445313 2.74046875 -0.03515625 1.8984375 C-0.02355469 1.27195313 -0.01195313 0.64546875 0 0 Z " fill="#0C9AC3" transform="translate(79,60)"/>
<path d="M0 0 C2.43046315 4.20267586 2.78072711 8.47864492 3.4375 13.22265625 C3.85730575 16.19599906 3.85730575 16.19599906 6 19 C8.43693311 19.36416047 8.43693311 19.36416047 11.125 19.1875 C12.03507812 19.16042969 12.94515625 19.13335937 13.8828125 19.10546875 C14.58148438 19.07066406 15.28015625 19.03585938 16 19 C16.74957157 15.52852158 16.74957157 15.52852158 17 12 C17.66 12 18.32 12 19 12 C19.125 18.75 19.125 18.75 18 21 C15.89590361 21.02701408 13.79170822 21.04640223 11.6875 21.0625 C10.51574219 21.07410156 9.34398438 21.08570312 8.13671875 21.09765625 C5 21 5 21 2 20 C-0.29612756 6.3667426 -0.29612756 6.3667426 0 0 Z " fill="#19D3ED" transform="translate(83,84)"/>
<path d="M0 0 C1.64438905 2.95990029 2.54561951 5.63758437 3 9 C2.67 9.33 2.34 9.66 2 10 C0.08088624 9.96173546 -1.83688026 9.84381588 -3.75 9.6875 C-4.79671875 9.60886719 -5.8434375 9.53023437 -6.921875 9.44921875 C-9.90609317 9.01370468 -12.26447035 8.24111993 -15 7 C-11.58860997 5.90348177 -8.79344419 6.05784527 -5.25 6.4375 C-4.26515625 6.53933594 -3.2803125 6.64117187 -2.265625 6.74609375 C-1.14414063 6.87177734 -1.14414063 6.87177734 0 7 C0 4.69 0 2.38 0 0 Z " fill="#12A3C7" transform="translate(71,104)"/>
<path d="M0 0 C-0.66 1.32 -1.32 2.64 -2 4 C-8.6 3.34 -15.2 2.68 -22 2 C-22 1.67 -22 1.34 -22 1 C-14.63959083 0.20274098 -7.40239645 -0.12886183 0 0 Z " fill="#0FDDDF" transform="translate(90,49)"/>
<path d="M0 0 C3.88132163 4.7250872 4.27380643 8.8308253 4.234375 14.8046875 C3.91975072 17.75166828 2.79700004 19.67887495 1 22 C-0.125 18.25 -0.125 18.25 1 16 C1.09683564 14.23132545 1.12979382 12.45881697 1.125 10.6875 C1.12757812 9.74261719 1.13015625 8.79773438 1.1328125 7.82421875 C1.005363 5.11404264 0.60596226 2.64026415 0 0 Z " fill="#0F91D2" transform="translate(112,89)"/>
<path d="M0 0 C3.55710481 0.6097894 6.81080586 1.27611127 10 3 C11.56894913 5.71000304 12.12857588 7.20711542 11.625 10.3125 C11.41875 10.869375 11.2125 11.42625 11 12 C10.34 9.69 9.68 7.38 9 5 C8.2575 5.0825 7.515 5.165 6.75 5.25 C4 5 4 5 1.6875 3.0625 C0 1 0 1 0 0 Z " fill="#15DDD4" transform="translate(59,96)"/>
<path d="M0 0 C1.98 0.66 3.96 1.32 6 2 C5.67 3.65 5.34 5.3 5 7 C4.01 7.33 3.02 7.66 2 8 C2 6.68 2 5.36 2 4 C0.68 3.34 -0.64 2.68 -2 2 C-1.34 1.34 -0.68 0.68 0 0 Z " fill="#0EC4E0" transform="translate(88,39)"/>
<path d="M0 0 C5.75 1.75 5.75 1.75 8 4 C8.125 7.125 8.125 7.125 8 10 C7.01 10.495 7.01 10.495 6 11 C5.7525 10.113125 5.505 9.22625 5.25 8.3125 C3.96065232 4.89572865 2.40019871 2.7202252 0 0 Z " fill="#15B4E9" transform="translate(104,83)"/>
<path d="M0 0 C1.32 0.33 2.64 0.66 4 1 C3.06027344 1.70576172 3.06027344 1.70576172 2.1015625 2.42578125 C1.28429688 3.04839844 0.46703125 3.67101563 -0.375 4.3125 C-1.18710937 4.92738281 -1.99921875 5.54226562 -2.8359375 6.17578125 C-5.19779389 7.99480683 -5.19779389 7.99480683 -7 11 C-7.33 8.69 -7.66 6.38 -8 4 C-7.67 4.66 -7.34 5.32 -7 6 C-6.34 6 -5.68 6 -5 6 C-5 5.34 -5 4.68 -5 4 C-3.35 3.34 -1.7 2.68 0 2 C0 1.34 0 0.68 0 0 Z " fill="#11E4C0" transform="translate(56,54)"/>
<path d="M0 0 C1 2 1 2 0.0625 5.125 C-0.288125 6.07375 -0.63875 7.0225 -1 8 C-2.32 7.67 -3.64 7.34 -5 7 C-4.67 6.01 -4.34 5.02 -4 4 C-3.01 4 -2.02 4 -1 4 C-0.67 2.68 -0.34 1.36 0 0 Z " fill="#11B7ED" transform="translate(112,105)"/>
<path d="M0 0 C0.66 0.33 1.32 0.66 2 1 C1.04270084 2.12588014 0.08412105 3.2506715 -0.875 4.375 C-1.40867187 5.00148438 -1.94234375 5.62796875 -2.4921875 6.2734375 C-3.61432007 7.55836651 -4.79371975 8.79371975 -6 10 C-6.33 8.68 -6.66 7.36 -7 6 C-4.69 4.02 -2.38 2.04 0 0 Z " fill="#0D9BAF" transform="translate(57,56)"/>
<path d="M0 0 C0.66 0.33 1.32 0.66 2 1 C2 1.66 2 2.32 2 3 C2.33 3.66 2.66 4.32 3 5 C1.68 4.67 0.36 4.34 -1 4 C-1.33 4.99 -1.66 5.98 -2 7 C-2.66 7 -3.32 7 -4 7 C-3.43628586 3.73045798 -2.50037734 2.17424117 0 0 Z " fill="#13B9B9" transform="translate(50,42)"/>
<path d="M0 0 C1.32 0 2.64 0 4 0 C4 0.66 4 1.32 4 2 C5.32 2 6.64 2 8 2 C8 2.66 8 3.32 8 4 C6.68 4.33 5.36 4.66 4 5 C2.68 3.35 1.36 1.7 0 0 Z " fill="#12B9B1" transform="translate(44,101)"/>
<path d="M0 0 C0.99 0.33 1.98 0.66 3 1 C3.33 1.99 3.66 2.98 4 4 C4.66 4.66 5.32 5.32 6 6 C5.01 7.485 5.01 7.485 4 9 C3.34 8.34 2.68 7.68 2 7 C2 5.68 2 4.36 2 3 C1.34 3 0.68 3 0 3 C0 2.01 0 1.02 0 0 Z " fill="#13E7BA" transform="translate(39,90)"/>
<path d="M0 0 C2 3 2 3 2 6 C-0.31 6 -2.62 6 -5 6 C-3 4 -3 4 -1 3 C-0.67 2.01 -0.34 1.02 0 0 Z " fill="#0AE3CE" transform="translate(69,105)"/>
<path d="M0 0 C2.31 0.66 4.62 1.32 7 2 C7.33 3.32 7.66 4.64 8 6 C6.66402348 5.19185349 5.331275 4.37836819 4 3.5625 C3.2575 3.11003906 2.515 2.65757813 1.75 2.19140625 C1.1725 1.79824219 0.595 1.40507813 0 1 C0 0.67 0 0.34 0 0 Z " fill="#109DD0" transform="translate(90,89)"/>
<path d="M0 0 C2.375 1.1875 2.375 1.1875 3.375 3.1875 C-2.16346154 3.55673077 -2.16346154 3.55673077 -4.5 1.6875 C-4.87125 1.1925 -5.2425 0.6975 -5.625 0.1875 C-2.625 -0.8125 -2.625 -0.8125 0 0 Z " fill="#0CA9DC" transform="translate(104.625,80.8125)"/>
<path d="M0 0 C0.66 0.33 1.32 0.66 2 1 C1.50168276 4.68754757 0.89932357 6.60490662 -2 9 C-2.20140476 5.37471432 -1.85776765 3.13498292 0 0 Z " fill="#17A8D7" transform="translate(94,42)"/>
<path d="M0 0 C2 2 2 2 2.5 4.5625 C2.665 5.366875 2.83 6.17125 3 7 C3.66 7.33 4.32 7.66 5 8 C3.35 7.67 1.7 7.34 0 7 C0 4.69 0 2.38 0 0 Z " fill="#1BCCEB" transform="translate(90,82)"/>
</svg>
